<svg xmlns="http://www.w3.org/2000/svg" width="11.429" height="10" viewBox="0 0 11.429 10">
  <path id="Icon_awesome-sliders-h" data-name="Icon awesome-sliders-h" d="M11.071,10.107h-7.5V9.75a.358.358,0,0,0-.357-.357H2.5a.358.358,0,0,0-.357.357v.357H.357A.358.358,0,0,0,0,10.464v.714a.358.358,0,0,0,.357.357H2.143v.357a.358.358,0,0,0,.357.357h.714a.358.358,0,0,0,.357-.357v-.357h7.5a.358.358,0,0,0,.357-.357v-.714A.358.358,0,0,0,11.071,10.107Zm0-3.571H9.286V6.179a.358.358,0,0,0-.357-.357H8.214a.358.358,0,0,0-.357.357v.357H.357A.358.358,0,0,0,0,6.893v.714a.358.358,0,0,0,.357.357h7.5v.357a.358.358,0,0,0,.357.357h.714a.358.358,0,0,0,.357-.357V7.964h1.786a.358.358,0,0,0,.357-.357V6.893A.358.358,0,0,0,11.071,6.536Zm0-3.571H6.429V2.607a.358.358,0,0,0-.357-.357H5.357A.358.358,0,0,0,5,2.607v.357H.357A.358.358,0,0,0,0,3.321v.714a.358.358,0,0,0,.357.357H5V4.75a.358.358,0,0,0,.357.357h.714a.358.358,0,0,0,.357-.357V4.393h4.643a.358.358,0,0,0,.357-.357V3.321A.358.358,0,0,0,11.071,2.964Z" transform="translate(0 -2.25)" fill="#d65653"/>
</svg>
