<svg xmlns="http://www.w3.org/2000/svg" width="15" height="20" viewBox="0 0 15 20">
  <path id="Icon_awesome-file-upload" data-name="Icon awesome-file-upload" d="M8.75,5.313V0H.938A.935.935,0,0,0,0,.938V19.063A.935.935,0,0,0,.938,20H14.063A.935.935,0,0,0,15,19.063V6.25H9.687A.94.94,0,0,1,8.75,5.313ZM11.3,13.75H8.75v3.125a.625.625,0,0,1-.625.625H6.875a.625.625,0,0,1-.625-.625V13.75H3.7a.625.625,0,0,1-.44-1.069L7.03,8.943a.666.666,0,0,1,.939,0l3.766,3.738A.625.625,0,0,1,11.3,13.75ZM14.727,4.1,10.9.273A.937.937,0,0,0,10.238,0H10V5h5V4.762A.935.935,0,0,0,14.727,4.1Z" fill="#d65653"/>
</svg>
