<svg xmlns="http://www.w3.org/2000/svg" width="18" height="18" viewBox="0 0 18 18">
  <path id="Icon_awesome-smoking-ban" data-name="Icon awesome-smoking-ban" d="M3.375,10.688a.564.564,0,0,0,.563.563H8.068L4.693,7.875H3.938a.564.564,0,0,0-.562.563ZM9,0a9,9,0,1,0,9,9A9,9,0,0,0,9,0ZM9,15.75A6.739,6.739,0,0,1,3.505,5.094l9.4,9.4A6.7,6.7,0,0,1,9,15.75ZM10.589,9H13.5v1.125H11.714Zm3.906,3.906L12.839,11.25h1.223a.564.564,0,0,0,.563-.562V8.438a.564.564,0,0,0-.562-.562h-4.6l-4.37-4.37a6.739,6.739,0,0,1,9.4,9.4ZM11.271,4.5a1.125,1.125,0,0,1-1.1-.911A.272.272,0,0,0,9.9,3.375h-.57a.287.287,0,0,0-.281.33,2.253,2.253,0,0,0,2.225,1.92,1.125,1.125,0,0,1,1.1.911.272.272,0,0,0,.271.214h.57a.287.287,0,0,0,.281-.33A2.253,2.253,0,0,0,11.271,4.5Z" fill="#d65653"/>
</svg>
