<svg xmlns="http://www.w3.org/2000/svg" width="7.5" height="10" viewBox="0 0 7.5 10">
  <g id="Icon_awesome-bookmark" data-name="Icon awesome-bookmark" fill="#d65653">
    <path d="M 7 9.129478454589844 L 4.001940250396729 7.38060998916626 L 3.750000238418579 7.233650207519531 L 3.49806022644043 7.38060998916626 L 0.5000002384185791 9.129478454589844 L 0.5000002384185791 0.9375 C 0.5000002384185791 0.6962599754333496 0.6962602138519287 0.5 0.9375002384185791 0.5 L 6.5625 0.5 C 6.80374002456665 0.5 7 0.6962599754333496 7 0.9375 L 7 9.129478454589844 Z" stroke="none"/>
    <path d="M 6.5 8.258962631225586 L 6.5 1 L 1.000000238418579 1 L 1.000000238418579 8.258962631225586 L 3.246130228042603 6.94871997833252 L 3.750000238418579 6.654799938201904 L 4.253870010375977 6.94871997833252 L 6.5 8.258962631225586 M 7.5 10 L 3.750000238418579 7.8125 L 2.384185791015625e-07 10 L 2.384185791015625e-07 0.9375 C 2.384185791015625e-07 0.419730007648468 0.4197302460670471 0 0.9375002384185791 0 L 6.5625 0 C 7.080270290374756 0 7.5 0.419730007648468 7.5 0.9375 L 7.5 10 Z" stroke="none" fill="#d65653"/>
  </g>
</svg>
