<svg xmlns="http://www.w3.org/2000/svg" width="16.585" height="17.817" viewBox="0 0 16.585 17.817">
  <path id="Icon_ionic-ios-snow" data-name="Icon ionic-ios-snow" d="M20.181,15.78,18.831,15a3.624,3.624,0,0,1,1.091-.762.644.644,0,0,0,.371-.8.59.59,0,0,0-.562-.408.624.624,0,0,0-.229.046,4.866,4.866,0,0,0-1.745,1.3l-4.012-2.333,4.012-2.333a4.83,4.83,0,0,0,1.745,1.3.624.624,0,0,0,.229.046.6.6,0,0,0,.562-.408.644.644,0,0,0-.371-.8,3.737,3.737,0,0,1-1.091-.762l1.35-.783a.63.63,0,0,0-.317-1.175.653.653,0,0,0-.317.083L18.206,8A3.747,3.747,0,0,1,18.1,6.666a.644.644,0,0,0-.5-.721.636.636,0,0,0-.125-.012.6.6,0,0,0-.587.517,4.846,4.846,0,0,0,.254,2.174l-4,2.333V6.824a4.886,4.886,0,0,0,1.987-.871.6.6,0,0,0,.075-.866.64.64,0,0,0-.475-.212.652.652,0,0,0-.4.137,3.615,3.615,0,0,1-1.191.567V4A.646.646,0,0,0,11.85,4V5.566A3.724,3.724,0,0,1,10.658,5a.638.638,0,0,0-.871.075.6.6,0,0,0,.075.866,4.886,4.886,0,0,0,1.987.871v4.132l-4-2.333A4.875,4.875,0,0,0,8.1,6.437a.588.588,0,0,0-.583-.517.633.633,0,0,0-.625.733,3.734,3.734,0,0,1-.108,1.329L5.439,7.207a.642.642,0,0,0-.317-.083A.63.63,0,0,0,4.805,8.3l1.35.783a3.68,3.68,0,0,1-1.091.762.644.644,0,0,0-.371.8.59.59,0,0,0,.562.408A.624.624,0,0,0,5.484,11,4.866,4.866,0,0,0,7.23,9.7l4.012,2.333L7.23,14.368a4.83,4.83,0,0,0-1.745-1.3.624.624,0,0,0-.229-.046.6.6,0,0,0-.562.408.646.646,0,0,0,.371.8,3.68,3.68,0,0,1,1.091.762l-1.35.783a.63.63,0,0,0,.317,1.175.654.654,0,0,0,.317-.083l1.346-.783a3.758,3.758,0,0,1,.108,1.333.633.633,0,0,0,.625.733A.6.6,0,0,0,8.1,17.63a4.846,4.846,0,0,0-.254-2.174l4-2.333v4.132a4.886,4.886,0,0,0-1.987.871.6.6,0,0,0-.075.866.64.64,0,0,0,.475.212.652.652,0,0,0,.4-.137A3.669,3.669,0,0,1,11.85,18.5v1.562a.646.646,0,0,0,1.291,0V18.5a3.724,3.724,0,0,1,1.191.567.652.652,0,0,0,.4.137.64.64,0,0,0,.475-.212.6.6,0,0,0-.075-.866,4.886,4.886,0,0,0-1.987-.871V13.123l4,2.333a4.875,4.875,0,0,0-.25,2.174.588.588,0,0,0,.583.517.633.633,0,0,0,.625-.733,3.75,3.75,0,0,1,.108-1.333l1.341.783a.642.642,0,0,0,.317.083.626.626,0,0,0,.317-1.166Z" transform="translate(-4.2 -3.125)" fill="#d65653" stroke="#d65653" stroke-width="0.5"/>
</svg>
