<svg xmlns="http://www.w3.org/2000/svg" width="7.5" height="10" viewBox="0 0 7.5 10">
  <g id="Icon_awesome-bookmark" data-name="Icon awesome-bookmark" fill="none">
    <path d="M0,10V.938A.937.937,0,0,1,.938,0H6.563A.937.937,0,0,1,7.5.938V10L3.75,7.812Z" stroke="none"/>
    <path d="M 6.5 8.258962631225586 L 6.5 1 L 1.000000238418579 1 L 1.000000238418579 8.258962631225586 L 3.246130228042603 6.94871997833252 L 3.750000238418579 6.654799938201904 L 4.253870010375977 6.94871997833252 L 6.5 8.258962631225586 M 7.5 10 L 3.750000238418579 7.8125 L 2.384185791015625e-07 10 L 2.384185791015625e-07 0.9375 C 2.384185791015625e-07 0.419730007648468 0.4197302460670471 0 0.9375002384185791 0 L 6.5625 0 C 7.080270290374756 0 7.5 0.419730007648468 7.5 0.9375 L 7.5 10 Z" stroke="none" fill="#d65653"/>
  </g>
</svg>
