<svg xmlns="http://www.w3.org/2000/svg" width="18" height="12.6" viewBox="0 0 18 12.6">
  <path id="Icon_awesome-wifi" data-name="Icon awesome-wifi" d="M17.857,5.706a13.077,13.077,0,0,0-17.714,0,.447.447,0,0,0-.01.646l.963.955a.457.457,0,0,0,.63.011,10.791,10.791,0,0,1,14.548,0,.457.457,0,0,0,.63-.011l.963-.955A.447.447,0,0,0,17.857,5.706ZM9,11.25a1.8,1.8,0,1,0,1.8,1.8A1.8,1.8,0,0,0,9,11.25ZM14.7,8.9a8.634,8.634,0,0,0-11.4,0,.445.445,0,0,0-.016.651l.969.956a.459.459,0,0,0,.62.022,6.334,6.334,0,0,1,8.254,0,.459.459,0,0,0,.62-.022l.969-.956A.445.445,0,0,0,14.7,8.9Z" transform="translate(0 -2.25)" fill="#d65653"/>
</svg>
