<svg xmlns="http://www.w3.org/2000/svg" xmlns:xlink="http://www.w3.org/1999/xlink" width="16.961" height="17.845" viewBox="0 0 16.961 17.845">
  <defs>
    <linearGradient id="linear-gradient" x1="0.068" y1="0.844" x2="0.77" y2="0.076" gradientUnits="objectBoundingBox">
      <stop offset="0" stop-color="#d65653"/>
      <stop offset="0.129" stop-color="#da6151"/>
      <stop offset="0.447" stop-color="#e2784e"/>
      <stop offset="0.745" stop-color="#e8874c"/>
      <stop offset="1" stop-color="#ea8c4c"/>
    </linearGradient>
  </defs>
  <path id="Path_152" data-name="Path 152" d="M2273.916,384.225a9.626,9.626,0,0,0-5.2-1.482h-6.285a1.565,1.565,0,0,0-1.563,1.563v6.983a5.619,5.619,0,0,0,.889,3.079c1.121,1.722,2.983,2.641,5.694,2.81,2.847.177,4.789-1.162,4.949-3.415.112-1.566-1.2-2.914-3.516-3.607a3.6,3.6,0,0,0-.384-.092,4.571,4.571,0,0,1-.7-.192c-.5-.18-.949-.445-.949-.73,0-.321,0-.92,1.421-.921.136.012.233.028.274.035l.026.006a6.743,6.743,0,0,1,1.857.9,1.1,1.1,0,0,0,1.249-1.806,7.228,7.228,0,0,0-3.4-1.331c-2.234,0-3.622,1.194-3.622,3.117a2.473,2.473,0,0,0,.154.87,3.383,3.383,0,0,0,1.949,1.811,6.362,6.362,0,0,0,1.346.4,1.414,1.414,0,0,1,.151.036c.987.3,1.989.88,1.956,1.347-.1,1.387-1.867,1.427-2.622,1.38-1.969-.123-3.274-.717-3.99-1.817a3.432,3.432,0,0,1-.533-1.88v-6.35h5.652a7.432,7.432,0,0,1,4.016,1.137,6.213,6.213,0,0,1,2.9,5.589,6.11,6.11,0,0,1-3.3,5.671,8.463,8.463,0,0,1-4.143,1.055h-2.569a1.1,1.1,0,1,0,0,2.2h2.569a10.662,10.662,0,0,0,5.219-1.337,8.283,8.283,0,0,0,4.416-7.586A8.367,8.367,0,0,0,2273.916,384.225Z" transform="translate(-2260.869 -382.743)" fill="url(#linear-gradient)"/>
</svg>
